<?xml version="1.0" encoding="UTF-8"?><svg id="Layer_1" xmlns="http://www.w3.org/2000/svg" width="128" height="128" viewBox="0 0 128 128"><g id="Group_16423"><path id="Path_1642" d="M31.68,58.58c-2.51-2.69-2.35-6.91,.34-9.42,2.69-2.51,6.91-2.35,9.42,.34h0l15.88,17.01V19.08c0-3.69,2.99-6.68,6.68-6.68s6.68,2.99,6.68,6.68v47.44l15.88-17.01c2.51-2.69,6.72-2.85,9.42-.34,2.69,2.51,2.85,6.72,.34,9.42h0c-9.15,9.79-18.29,19.59-27.44,29.38-.11,.11-.22,.23-.34,.34-2.69,2.51-6.91,2.35-9.42-.34h0l-27.44-29.39Z"/><path id="Path_1643" d="M105.64,83.67c0-3.69,2.98-6.68,6.67-6.68,3.69,0,6.68,2.98,6.68,6.67h0v14.58c-.02,9.58-7.78,17.34-17.36,17.36H26.36c-9.58-.02-17.34-7.78-17.36-17.36v-14.57c0-3.69,2.99-6.68,6.68-6.68s6.68,2.99,6.68,6.68h0v14.57c.02,2.21,1.8,3.99,4.01,4.01H101.65c2.21-.02,3.99-1.8,4.01-4.01v-14.57Z"/></g></svg>