<svg id="グループ_903" data-name="グループ 903" xmlns="http://www.w3.org/2000/svg" xmlns:xlink="http://www.w3.org/1999/xlink" width="117.455" height="54.705" viewBox="0 0 117.455 54.705">
  <defs>
    <clipPath id="clip-path">
      <rect id="長方形_631" data-name="長方形 631" width="117.455" height="54.705" fill="none"/>
    </clipPath>
  </defs>
  <g id="グループ_514" data-name="グループ 514" clip-path="url(#clip-path)">
    <path id="パス_1608" data-name="パス 1608" d="M140.121,22.421l8.238-10a.828.828,0,0,0,.188-.525V7.47a.826.826,0,0,0-.826-.826H115.939a.826.826,0,0,0-.826.826v3.519a.826.826,0,0,0,.826.826h25.212a.413.413,0,0,1,.318.676L121.007,37.249a.825.825,0,0,1-.636.3h-4.433a.826.826,0,0,0-.826.826v3.561a.826.826,0,0,0,.826.826h6.49a1.628,1.628,0,0,0,1.251-.586L135.564,27.9a.825.825,0,0,1,1.308.051L147,42.225a1.273,1.273,0,0,0,1.038.536h4.426a.733.733,0,0,0,.6-1.159L140.086,23.426a.825.825,0,0,1,.035-1" transform="translate(-72.947 -4.21)" fill="#fff"/>
    <path id="パス_1609" data-name="パス 1609" d="M12.9,33.592h2.88a.831.831,0,0,0,.831-.831v-2.91a.831.831,0,0,0-.831-.831H3.533a.831.831,0,0,0-.831.831v2.91a.831.831,0,0,0,.831.831H6.539a.831.831,0,0,1,.831.831v.7a.831.831,0,0,1-.831.831H1.7a.831.831,0,0,0-.831.831v3.036a.831.831,0,0,0,.831.831H6.539a.831.831,0,0,1,.831.831V51.16a.831.831,0,0,1-.777.829l-4.945.321a.831.831,0,0,0-.777.829v2.909a.831.831,0,0,0,.889.829l15.91-1.116a.831.831,0,0,0,.773-.829V52.024a.831.831,0,0,0-.89-.829l-4.593.328a.831.831,0,0,1-.89-.829V41.479a.831.831,0,0,1,.831-.831h4.712a.831.831,0,0,0,.831-.831V36.78a.831.831,0,0,0-.831-.831H12.9a.831.831,0,0,1-.831-.831v-.7a.831.831,0,0,1,.831-.831" transform="translate(-0.551 -18.39)" fill="#fff"/>
    <path id="パス_1610" data-name="パス 1610" d="M7.5.355l-6.3,4.9a.831.831,0,0,0-.321.656V9.946a.709.709,0,0,0,1.143.56L9.129,4.988a.831.831,0,0,1,1.017,0L17.3,10.507a.709.709,0,0,0,1.141-.561V5.914a.831.831,0,0,0-.321-.656l-6.3-4.9A1.686,1.686,0,0,0,10.783,0H8.531A1.688,1.688,0,0,0,7.5.355" transform="translate(-0.552 0.001)" fill="#fff"/>
    <path id="パス_1611" data-name="パス 1611" d="M70.12,31.2a.83.83,0,0,1-.012-.727l2.9-6.2a.623.623,0,0,0-.564-.886H69.462a.831.831,0,0,0-.75.474l-.764,1.6a.415.415,0,0,1-.745.01l-1.519-2.99a.416.416,0,0,1,.371-.6h5.371a.831.831,0,0,0,.831-.831V.831A.831.831,0,0,0,71.425,0H54.248a.831.831,0,0,0-.831.831V37.648a.831.831,0,0,0,.9.828l9.666-.805a.831.831,0,0,0,.762-.828V33.525a.831.831,0,0,0-.908-.827l-4.813.449a.831.831,0,0,1-.908-.827v-9.61a.831.831,0,0,1,.831-.831H60.17a.831.831,0,0,1,.746.464l4.579,9.313.641,1.3h0l2.522,5.129a.831.831,0,0,0,.746.464h3.292a.709.709,0,0,0,.633-1.03ZM58.115,5.445a.831.831,0,0,1,.831-.831h7.822a.831.831,0,0,1,.831.831V7.864a.831.831,0,0,1-.831.831H58.946a.831.831,0,0,1-.831-.831Zm.831,11.819a.831.831,0,0,1-.831-.831V13.971a.831.831,0,0,1,.831-.831h7.822a.831.831,0,0,1,.831.831v2.462a.831.831,0,0,1-.831.831Z" transform="translate(-33.85)" fill="#fff"/>
    <path id="パス_1612" data-name="パス 1612" d="M36.145,65.162l-.579,6.4a.831.831,0,0,0,.828.906h2.233a.831.831,0,0,0,.828-.756l.579-6.4a.831.831,0,0,0-.828-.906H36.973a.831.831,0,0,0-.828.756" transform="translate(-22.536 -40.814)" fill="#fff"/>
    <path id="パス_1613" data-name="パス 1613" d="M5.827,65.162l.579,6.4a.831.831,0,0,1-.828.906H3.345a.831.831,0,0,1-.828-.756l-.579-6.4a.831.831,0,0,1,.828-.906H5a.831.831,0,0,1,.828.756" transform="translate(-1.226 -40.814)" fill="#fff"/>
    <path id="パス_1614" data-name="パス 1614" d="M6.913,129.332a4,4,0,0,1-2.984,1.23,3.934,3.934,0,0,1-2.879-1.17C-.03,128.312,0,126.977,0,125.133s-.03-3.179,1.05-4.259a3.884,3.884,0,0,1,2.879-1.17A4.048,4.048,0,0,1,7.2,121.069l-1.41,1.41a2.364,2.364,0,0,0-1.859-.915,1.733,1.733,0,0,0-1.335.57c-.4.45-.51.945-.51,3s.105,2.564.51,3.014a1.724,1.724,0,0,0,1.335.555,1.826,1.826,0,0,0,1.425-.6,2.147,2.147,0,0,0,.465-1.455v-.375H3.929v-1.74H7.9v1.53a4.268,4.268,0,0,1-.99,3.269" transform="translate(0 -75.856)" fill="#fff"/>
    <rect id="長方形_630" data-name="長方形 630" width="2.085" height="10.677" transform="translate(9.914 43.938)" fill="#fff"/>
    <path id="パス_1615" data-name="パス 1615" d="M45.869,130.628l-4.229-6.553v6.553H39.555V119.951h1.86l4.229,6.538v-6.538h2.085v10.677Z" transform="translate(-25.066 -76.013)" fill="#fff"/>
    <path id="パス_1616" data-name="パス 1616" d="M66.908,130.628v-1.679l4.559-7.138H67.1v-1.859h6.823V121.6l-4.574,7.168h4.574v1.86Z" transform="translate(-42.4 -76.013)" fill="#fff"/>
    <path id="パス_1617" data-name="パス 1617" d="M95.976,130.627l-.63-1.889H91.552l-.645,1.889H88.733l3.884-10.677h1.635l3.9,10.677ZM93.487,123.1l-1.35,3.884h2.655Z" transform="translate(-56.23 -76.012)" fill="#fff"/>
    <path id="パス_1618" data-name="パス 1618" d="M129.648,130.561a5.015,5.015,0,0,1-3.9-1.41l1.349-1.35a3.5,3.5,0,0,0,2.579.9c1.23,0,1.889-.465,1.889-1.319a1.189,1.189,0,0,0-.33-.9,1.589,1.589,0,0,0-.945-.375l-1.29-.18a3.623,3.623,0,0,1-2.069-.885,2.822,2.822,0,0,1-.765-2.1c0-1.9,1.41-3.239,3.719-3.239a4.575,4.575,0,0,1,3.449,1.245l-1.319,1.3a2.972,2.972,0,0,0-2.189-.735c-1.11,0-1.65.615-1.65,1.35a1.03,1.03,0,0,0,.315.765,1.838,1.838,0,0,0,.99.42l1.26.18a3.532,3.532,0,0,1,2.04.825,2.991,2.991,0,0,1,.825,2.264c0,2.07-1.725,3.239-3.959,3.239" transform="translate(-79.687 -75.856)" fill="#fff"/>
    <path id="パス_1619" data-name="パス 1619" d="M157.958,130.628l-2.744-4.859-1.38,1.65v3.209H151.75V119.951h2.084V124.6l3.764-4.649h2.534l-3.539,4.244,3.794,6.433Z" transform="translate(-96.164 -76.013)" fill="#fff"/>
    <path id="パス_1620" data-name="パス 1620" d="M181.8,126.248v4.379h-2.07v-4.379l-3.209-6.3h2.264l1.995,4.3,1.964-4.3h2.264Z" transform="translate(-111.863 -76.012)" fill="#fff"/>
    <path id="パス_1621" data-name="パス 1621" d="M219.825,130.628h-1.74l-1.965-6.478-1.964,6.478h-1.74l-2.849-10.677h2.175l1.65,6.733,1.949-6.733H216.9l1.95,6.733,1.664-6.733h2.174Z" transform="translate(-132.803 -76.013)" fill="#fff"/>
    <path id="パス_1622" data-name="パス 1622" d="M251.043,130.627l-.63-1.889h-3.794l-.645,1.889H243.8l3.884-10.677h1.635l3.9,10.677Zm-2.489-7.528-1.35,3.884h2.655Z" transform="translate(-154.496 -76.012)" fill="#fff"/>
    <path id="パス_1623" data-name="パス 1623" d="M273.526,130.628V119.951h2.085v8.818h4.844v1.86Z" transform="translate(-173.334 -76.013)" fill="#fff"/>
    <path id="パス_1624" data-name="パス 1624" d="M303.28,130.628l-2.744-4.859-1.38,1.65v3.209h-2.084V119.951h2.084V124.6l3.764-4.649h2.534l-3.539,4.244,3.794,6.433Z" transform="translate(-188.254 -76.013)" fill="#fff"/>
    <path id="パス_1625" data-name="パス 1625" d="M226.742,3.178V.83A.831.831,0,0,0,225.911,0h-3.586a.831.831,0,0,0-.831.831V3.178a.831.831,0,0,1-.831.831H216.91a.831.831,0,0,0-.831.831V8.425a.831.831,0,0,0,.831.831h3.753a.831.831,0,0,1,.831.831V37.676a.831.831,0,0,0,.831.831h3.586a.831.831,0,0,0,.831-.831V10.087a.831.831,0,0,1,.831-.831h20.471a.831.831,0,0,1,.831.831V32.472a.831.831,0,0,1-.831.831h-5.175a.831.831,0,0,0-.831.831v3.585a.831.831,0,0,0,.831.831h10.466a.831.831,0,0,0,.831-.831V4.84a.831.831,0,0,0-.831-.831H227.574a.831.831,0,0,1-.831-.831" transform="translate(-136.929 0.001)" fill="#fff"/>
  </g>
</svg>
