<svg id="グループ_514" data-name="グループ 514" xmlns="http://www.w3.org/2000/svg" xmlns:xlink="http://www.w3.org/1999/xlink" width="171.297" height="79.782" viewBox="0 0 171.297 79.782">
  <defs>
    <clipPath id="clip-path">
      <rect id="長方形_631" data-name="長方形 631" width="171.297" height="79.782" fill="none"/>
    </clipPath>
  </defs>
  <g id="グループ_514-2" data-name="グループ 514" clip-path="url(#clip-path)">
    <path id="パス_1608" data-name="パス 1608" d="M151.585,29.653,163.6,15.07a1.207,1.207,0,0,0,.275-.766V7.848a1.2,1.2,0,0,0-1.2-1.2H116.317a1.2,1.2,0,0,0-1.2,1.2v5.133a1.2,1.2,0,0,0,1.2,1.2h36.77a.6.6,0,0,1,.464.986L123.71,51.279a1.2,1.2,0,0,1-.928.437h-6.465a1.2,1.2,0,0,0-1.2,1.2v5.193a1.2,1.2,0,0,0,1.2,1.2h9.466a2.374,2.374,0,0,0,1.825-.855l17.331-20.816a1.2,1.2,0,0,1,1.907.074l14.773,20.815a1.857,1.857,0,0,0,1.515.782h6.455a1.069,1.069,0,0,0,.87-1.69L151.534,31.118a1.2,1.2,0,0,1,.051-1.465" transform="translate(-53.618 -3.095)" fill="#0092e5"/>
    <path id="パス_1609" data-name="パス 1609" d="M18.414,35.688h4.2a1.212,1.212,0,0,0,1.212-1.212V30.232a1.212,1.212,0,0,0-1.212-1.212H4.754a1.212,1.212,0,0,0-1.212,1.212v4.243a1.212,1.212,0,0,0,1.212,1.212H9.137A1.212,1.212,0,0,1,10.35,36.9v1.014a1.212,1.212,0,0,1-1.212,1.212H2.082A1.212,1.212,0,0,0,.87,40.338v4.428a1.212,1.212,0,0,0,1.212,1.212H9.137A1.212,1.212,0,0,1,10.35,47.19v14.12a1.212,1.212,0,0,1-1.134,1.209L2,62.987A1.212,1.212,0,0,0,.87,64.2V68.44a1.212,1.212,0,0,0,1.3,1.209l23.2-1.628A1.212,1.212,0,0,0,26.5,66.812V62.569a1.212,1.212,0,0,0-1.3-1.209l-6.7.478a1.212,1.212,0,0,1-1.3-1.209V47.19a1.212,1.212,0,0,1,1.212-1.212h6.872A1.212,1.212,0,0,0,26.5,44.765V40.338a1.212,1.212,0,0,0-1.212-1.212H18.414A1.212,1.212,0,0,1,17.2,37.914V36.9a1.212,1.212,0,0,1,1.212-1.212" transform="translate(-0.405 -13.517)" fill="#0092e5"/>
    <path id="パス_1610" data-name="パス 1610" d="M10.532.518,1.339,7.668a1.212,1.212,0,0,0-.468.957v5.88a1.033,1.033,0,0,0,1.667.817L12.914,7.274a1.211,1.211,0,0,1,1.483,0l10.436,8.052a1.033,1.033,0,0,0,1.665-.818V8.625a1.212,1.212,0,0,0-.468-.957L16.837.518A2.459,2.459,0,0,0,15.326,0H12.043a2.462,2.462,0,0,0-1.511.519" transform="translate(-0.406 0)" fill="#0092e5"/>
    <path id="パス_1611" data-name="パス 1611" d="M77.777,45.506a1.211,1.211,0,0,1-.018-1.061L81.982,35.4a.909.909,0,0,0-.823-1.293H76.818a1.212,1.212,0,0,0-1.094.691L74.61,37.134a.606.606,0,0,1-1.087.014l-2.216-4.361a.606.606,0,0,1,.541-.88H79.68a1.212,1.212,0,0,0,1.212-1.212V1.212A1.212,1.212,0,0,0,79.68,0H54.629a1.212,1.212,0,0,0-1.212,1.212V54.905a1.212,1.212,0,0,0,1.313,1.208l14.1-1.175a1.212,1.212,0,0,0,1.112-1.208V48.893a1.212,1.212,0,0,0-1.325-1.207l-7.02.654a1.212,1.212,0,0,1-1.325-1.207V33.119a1.212,1.212,0,0,1,1.212-1.212h1.785a1.212,1.212,0,0,1,1.088.677l6.678,13.582.934,1.9h0l3.678,7.481a1.212,1.212,0,0,0,1.088.677h4.8a1.035,1.035,0,0,0,.923-1.5ZM60.268,7.941A1.212,1.212,0,0,1,61.48,6.728H72.887A1.212,1.212,0,0,1,74.1,7.941v3.528a1.212,1.212,0,0,1-1.212,1.212H61.48a1.212,1.212,0,0,1-1.212-1.212ZM61.48,25.178a1.212,1.212,0,0,1-1.212-1.212v-3.59a1.212,1.212,0,0,1,1.212-1.212H72.887A1.212,1.212,0,0,1,74.1,20.375v3.59a1.212,1.212,0,0,1-1.212,1.212Z" transform="translate(-24.881)" fill="#0092e5"/>
    <path id="パス_1612" data-name="パス 1612" d="M36.412,65.509l-.845,9.336a1.212,1.212,0,0,0,1.207,1.321h3.257a1.213,1.213,0,0,0,1.207-1.1l.844-9.336a1.212,1.212,0,0,0-1.207-1.321H37.62a1.212,1.212,0,0,0-1.207,1.1" transform="translate(-16.565 -29.999)" fill="#0092e5"/>
    <path id="パス_1613" data-name="パス 1613" d="M7.611,65.509l.845,9.336a1.212,1.212,0,0,1-1.207,1.321H3.991a1.213,1.213,0,0,1-1.207-1.1L1.94,65.727a1.212,1.212,0,0,1,1.207-1.321H6.4a1.212,1.212,0,0,1,1.207,1.1" transform="translate(-0.901 -29.999)" fill="#0092e5"/>
    <path id="パス_1614" data-name="パス 1614" d="M10.083,133.745a5.832,5.832,0,0,1-4.352,1.793,5.737,5.737,0,0,1-4.2-1.706C-.043,132.258,0,130.311,0,127.622s-.043-4.637,1.532-6.212a5.664,5.664,0,0,1,4.2-1.706,5.9,5.9,0,0,1,4.768,1.99L8.442,123.75a3.448,3.448,0,0,0-2.712-1.334,2.528,2.528,0,0,0-1.947.832c-.59.656-.744,1.378-.744,4.374s.153,3.739.744,4.4a2.515,2.515,0,0,0,1.947.809,2.664,2.664,0,0,0,2.078-.875,3.131,3.131,0,0,0,.678-2.121v-.547H5.73v-2.537h5.8v2.231c0,2.253-.35,3.631-1.443,4.768" transform="translate(0 -55.757)" fill="#0092e5"/>
    <rect id="長方形_630" data-name="長方形 630" width="3.04" height="15.572" transform="translate(14.459 64.079)" fill="#0092e5"/>
    <path id="パス_1615" data-name="パス 1615" d="M48.763,135.522,42.6,125.965v9.558h-3.04V119.951h2.712l6.167,9.535v-9.535h3.04v15.572Z" transform="translate(-18.424 -55.871)" fill="#0092e5"/>
    <path id="パス_1616" data-name="パス 1616" d="M66.908,135.522v-2.449l6.649-10.411H67.192v-2.712h9.951v2.406L70.473,132.81h6.671v2.712Z" transform="translate(-31.165 -55.871)" fill="#0092e5"/>
    <path id="パス_1617" data-name="パス 1617" d="M99.3,135.522l-.918-2.755H92.845l-.941,2.755H88.733L94.4,119.95h2.384l5.686,15.572Zm-3.631-10.979L93.7,130.207h3.871Z" transform="translate(-41.331 -55.871)" fill="#0092e5"/>
    <path id="パス_1618" data-name="パス 1618" d="M131.435,135.539a7.314,7.314,0,0,1-5.686-2.056l1.968-1.969a5.1,5.1,0,0,0,3.762,1.312c1.793,0,2.755-.678,2.755-1.924a1.734,1.734,0,0,0-.481-1.313,2.317,2.317,0,0,0-1.378-.546l-1.882-.262a5.283,5.283,0,0,1-3.018-1.291,4.115,4.115,0,0,1-1.115-3.062c0-2.777,2.056-4.724,5.424-4.724a6.672,6.672,0,0,1,5.03,1.815l-1.924,1.9a4.335,4.335,0,0,0-3.193-1.072c-1.619,0-2.406.9-2.406,1.969a1.5,1.5,0,0,0,.459,1.115,2.68,2.68,0,0,0,1.443.612l1.837.262a5.15,5.15,0,0,1,2.974,1.2,4.362,4.362,0,0,1,1.2,3.3c0,3.018-2.515,4.724-5.774,4.724" transform="translate(-58.572 -55.757)" fill="#0092e5"/>
    <path id="パス_1619" data-name="パス 1619" d="M160.8,135.522l-4-7.086-2.012,2.406v4.68h-3.04V119.951h3.04v6.78l5.49-6.78h3.7l-5.161,6.189,5.533,9.382Z" transform="translate(-70.683 -55.871)" fill="#0092e5"/>
    <path id="パス_1620" data-name="パス 1620" d="M184.222,129.136v6.387H181.2v-6.387l-4.68-9.186h3.3l2.909,6.277,2.865-6.277h3.3Z" transform="translate(-82.222 -55.871)" fill="#0092e5"/>
    <path id="パス_1621" data-name="パス 1621" d="M224.527,135.522H221.99l-2.866-9.448-2.865,9.448h-2.537l-4.156-15.572h3.172l2.406,9.82,2.843-9.82h2.274l2.844,9.82,2.427-9.82H228.7Z" transform="translate(-97.614 -55.871)" fill="#0092e5"/>
    <path id="パス_1622" data-name="パス 1622" d="M254.364,135.522l-.918-2.755h-5.533l-.941,2.755H243.8l5.664-15.572h2.384l5.686,15.572Zm-3.63-10.979-1.969,5.665h3.871Z" transform="translate(-113.559 -55.871)" fill="#0092e5"/>
    <path id="パス_1623" data-name="パス 1623" d="M273.526,135.522V119.951h3.04v12.86h7.064v2.712Z" transform="translate(-127.405 -55.871)" fill="#0092e5"/>
    <path id="パス_1624" data-name="パス 1624" d="M306.126,135.522l-4-7.086-2.012,2.406v4.68h-3.04V119.951h3.04v6.78l5.49-6.78h3.7l-5.161,6.189,5.533,9.382Z" transform="translate(-138.372 -55.871)" fill="#0092e5"/>
    <path id="パス_1625" data-name="パス 1625" d="M231.63,4.635V1.211A1.212,1.212,0,0,0,230.418,0h-5.23a1.212,1.212,0,0,0-1.212,1.212V4.635a1.212,1.212,0,0,1-1.212,1.212h-5.473a1.212,1.212,0,0,0-1.212,1.212v5.228a1.212,1.212,0,0,0,1.212,1.212h5.473a1.212,1.212,0,0,1,1.212,1.212V54.948a1.212,1.212,0,0,0,1.212,1.212h5.23a1.212,1.212,0,0,0,1.212-1.212V14.712a1.212,1.212,0,0,1,1.212-1.212H262.7a1.212,1.212,0,0,1,1.212,1.212V47.358A1.212,1.212,0,0,1,262.7,48.57h-7.548a1.212,1.212,0,0,0-1.212,1.212V55.01a1.212,1.212,0,0,0,1.212,1.212h15.264a1.212,1.212,0,0,0,1.212-1.212V7.059a1.212,1.212,0,0,0-1.212-1.212H232.843a1.212,1.212,0,0,1-1.212-1.212" transform="translate(-100.647 0)" fill="#0092e5"/>
  </g>
</svg>
